Coordinates
version=1
nRows=11
nColumns=40
inDegrees=yes

Units are S.I. units (second, meters, Newtons, ...)
Angles are in degrees.

endheader
time	pelvis_tilt	pelvis_list	pelvis_rotation	pelvis_tx	pelvis_ty	pelvis_tz	hip_flexion_r	hip_adduction_r	hip_rotation_r	knee_angle_r	knee_angle_r_beta	ankle_angle_r	subtalar_angle_r	mtp_angle_r	hip_flexion_l	hip_adduction_l	hip_rotation_l	knee_angle_l	knee_angle_l_beta	ankle_angle_l	subtalar_angle_l	mtp_angle_l	lumbar_extension	lumbar_bending	lumbar_rotation	arm_flex_r	arm_add_r	arm_rot_r	elbow_flex_r	pro_sup_r	wrist_flex_r	wrist_dev_r	arm_flex_l	arm_add_l	arm_rot_l	elbow_flex_l	pro_sup_l	wrist_flex_l	wrist_dev_l
     19.72000000	     -6.60066565	     -6.66949675	      5.94663720	      1.03319568	      0.91742330	      0.46496201	      1.85959600	      5.41373563	    -16.93353815	      9.06358724	      9.06358724	     15.91332390	      2.41284486	     -3.09948099	     36.10027267	     -6.82749720	      2.33309705	     20.36161604	     20.36161604	      7.23731358	     -9.11349741	     12.20346102	    -10.25991048	      4.70154205	      2.70701788	     53.94919454	    -14.08567040	      2.13877538	    105.21694102	     44.14281601	      0.00000000	      0.00000000	    -15.72701205	     -6.32833146	      5.51412908	     26.82788795	     45.24733181	      0.00000000	      0.00000000
     19.73157143	     -6.51077509	     -6.73292350	      5.90929124	      1.03446701	      0.91579099	      0.46324918	      1.23996108	      5.38101782	    -16.84670830	      9.39503079	      9.39503079	     16.73467804	      2.51922879	     -2.76080333	     35.61746393	     -6.89843439	      1.65957222	     20.77963694	     20.77963694	      6.15116006	     -9.83958880	     11.00226417	    -10.12697132	      4.76153255	      2.30759184	     54.66588347	    -13.19050589	      2.53827951	    106.73345148	     44.10245867	      0.00000000	      0.00000000	    -16.74395816	     -6.22876963	      5.75289716	     26.90890779	     45.19323285	      0.00000000	      0.00000000
     19.74314286	     -6.46785928	     -6.66907022	      5.72399983	      1.03592016	      0.91426686	      0.46164855	      0.58529808	      5.22272246	    -16.59689794	      9.58925482	      9.58925482	     17.36545025	      2.59887709	     -2.72939352	     35.20417021	     -6.94274488	      0.90157742	     21.50856776	     21.50856776	      5.39662649	    -10.54233176	     10.62925680	     -9.83745412	      4.51446463	      2.43007271	     54.93361959	    -12.99340640	      2.58311537	    107.20506746	     44.09301799	      0.00000000	      0.00000000	    -17.43489480	     -6.15719305	      5.82900708	     26.76281383	     45.17045929	      0.00000000	      0.00000000
     19.75471429	     -6.33609097	     -6.70263854	      5.63172321	      1.03748049	      0.91291637	      0.45964811	      0.07596759	      5.04112154	    -16.63154704	     10.34734774	     10.34734774	     18.81424328	      3.09514473	     -0.49100688	     34.41369175	     -6.98947448	      0.51458042	     21.58519131	     21.58519131	      2.40622741	    -12.11290104	      4.95272063	     -9.68658039	      4.55574792	      2.54215197	     54.81036495	    -12.86845703	      2.49787293	    109.04556849	     44.11002719	      0.00000000	      0.00000000	    -18.03333698	     -6.27362517	      6.59559354	     27.19785332	     45.06139934	      0.00000000	      0.00000000
     19.76628571	     -6.23717333	     -6.58311781	      5.50313620	      1.03893205	      0.91187411	      0.45764894	     -0.53136077	      4.75494338	    -16.39008802	     10.73984288	     10.73984288	     19.25142542	      3.04025265	     -0.59875963	     34.01504795	     -6.94076760	      0.07217160	     22.53000600	     22.53000600	      2.01442774	    -12.66791755	      4.85584512	     -9.46846535	      4.35333810	      2.44682797	     54.62669849	    -12.54354149	      2.59534825	    109.43356417	     44.09915004	      0.00000000	      0.00000000	    -18.41255959	     -6.22642376	      6.68214539	     26.94268736	     45.04472030	      0.00000000	      0.00000000
     19.77785714	     -6.22594473	     -6.48259441	      5.37437205	      1.04011164	      0.91095386	      0.45549774	     -0.71998404	      4.36340644	    -16.20461703	     11.73464775	     11.73464775	     19.74630444	      2.83885117	     -0.65789265	     33.76530459	     -6.87438000	     -0.17779433	     23.49315309	     23.49315309	      1.63945209	    -13.21545471	      4.41756869	     -9.24463023	      4.23321948	      2.20310219	     54.23404018	    -12.02356923	      2.64120343	    110.57838989	     44.07425616	      0.00000000	      0.00000000	    -18.62464810	     -6.11716697	      6.87780992	     26.51552582	     45.01970987	      0.00000000	      0.00000000
     19.78942857	     -6.00877740	     -6.31950401	      5.29076368	      1.04141393	      0.91086910	      0.45317678	     -1.31028254	      3.97266631	    -16.02628958	     12.35163247	     12.35163247	     19.90253695	      2.71706763	     -0.73207977	     33.22425114	     -6.73278373	     -0.30189013	     24.35224370	     24.35224370	      1.74668473	    -13.61016676	      4.17991778	     -9.24121992	      3.97414088	      2.09244206	     53.54169169	    -11.88629846	      2.72270789	    110.81278206	     44.06454583	      0.00000000	      0.00000000	    -18.58489993	     -6.08481782	      6.92164792	     26.41407286	     45.01567863	      0.00000000	      0.00000000
     19.80100000	     -6.07526715	     -6.15011639	      5.18196865	      1.04213005	      0.91059749	      0.45073721	     -0.92500594	      3.33786651	    -15.85160675	     14.21957521	     14.21957521	     20.22043893	      2.19704476	     -1.03985585	     33.05049951	     -6.54605043	     -0.41359531	     25.20299473	     25.20299473	      1.93080282	    -13.86743176	      3.73727707	     -9.05543117	      3.76249059	      2.06246029	     52.51955325	    -11.76281404	      2.56370348	    112.31583014	     44.03414421	      0.00000000	      0.00000000	    -18.23271016	     -6.06586031	      7.08253322	     25.91862234	     45.00846189	      0.00000000	      0.00000000
     19.81257143	     -5.73878148	     -6.06334458	      5.17080460	      1.04308126	      0.91150483	      0.44805615	     -1.30859193	      2.92888567	    -15.74021102	     15.38689952	     15.38689952	     20.07590440	      1.89046376	     -1.20879610	     32.37332257	     -6.40865135	     -0.32176460	     25.90574035	     25.90574035	      2.42804969	    -14.09181585	      3.44767539	     -9.27212726	      3.71140535	      1.89944417	     51.32218008	    -11.70830255	      2.64510250	    112.54462688	     44.02337795	      0.00000000	      0.00000000	    -17.84692329	     -6.05175353	      7.12413796	     25.85717580	     45.01186475	      0.00000000	      0.00000000
     19.82414286	     -5.91168148	     -5.84158855	      5.01626874	      1.04330756	      0.91191620	      0.44546246	     -0.31609887	      2.09770607	    -15.45283808	     18.07386528	     18.07386528	     19.89973807	      0.89078401	     -2.05569704	     32.17705825	     -6.17014662	     -0.55163083	     26.44473600	     26.44473600	      3.09532923	    -14.00825933	      3.28495693	     -9.03865653	      3.41381295	      2.12743166	     49.78969869	    -12.02782675	      2.38332485	    113.90724369	     43.99920738	      0.00000000	      0.00000000	    -17.04863152	     -6.10549515	      7.23224899	     25.34750637	     45.02291473	      0.00000000	      0.00000000
     19.83571429	     -5.82698796	     -5.69701797	      4.90863239	      1.04360205	      0.91313830	      0.44275375	      0.33914123	      1.40840532	    -15.19211736	     20.56900948	     20.56900948	     19.32922078	     -0.05851979	     -2.83792648	     31.62080350	     -5.99674672	     -0.69384350	     26.81850669	     26.81850669	      3.90044641	    -13.89274767	      3.14572149	     -9.08629311	      3.25304247	      2.21710497	     48.06944090	    -12.28891890	      2.29952592	    114.51976605	     43.98711114	      0.00000000	      0.00000000	    -16.19943641	     -6.16052636	      7.28664590	     25.10440872	     45.03955211	      0.00000000	      0.00000000
